<?xml version="1.0" encoding="UTF-8"?>
<!-- Created with Inkscape (http://www.inkscape.org/) -->
<svg width="60.533mm" height="60.533mm" version="1.1" viewBox="0 0 60.533 60.533" xml:space="preserve" xmlns="http://www.w3.org/2000/svg"><g transform="translate(-76.115 -117.17)"><g transform="translate(1.4131 -.31901)"><g stroke="#000" stroke-width=".05"><path d="m112.26 145.38 4.0478-0.77614-2.1305 2.528z" fill="#7bb1bb"/><path d="m116.31 144.61 3.4856 0.90586-5.6161 1.6221z" fill="#75a6a8"/><path d="m114.18 147.14 3.4491 1.7075 2.167-3.3296z" fill="#933f4e"/><path d="m117.62 148.84 3.8605-3.3099-1.6936-0.0197z" fill="#8f394a"/><path d="m118.66 147.96 0.68315 0.646 0.68925-0.25601 0.57108-0.43323 0.31508-0.74832-0.5932-0.63627z" fill="#a34154"/><path d="m119.79 145.51-1.536-2.8751-1.9496 1.9693z" fill="#75a6a9"/><path d="m119.79 145.51 2.3434-4.1354-2.7313 0.29539 0.38788 3.84z" fill="#71aaac"/><path d="m119.79 145.51 1.6936 0.0197 0.86647-2.4222-0.21662-1.733z" fill="#b84356"/><path d="m119.79 145.51-0.38788-3.84-1.1482 0.96494z" fill="#5dbdbc"/><path d="m122.13 141.38-2.4419-1.4572-0.28941 1.7526z" fill="#46a4a3"/><path d="m122.13 141.38-1.989-4.4702-0.45293 3.013z" fill="#47a5a4"/><path d="m122.13 141.38 1.0634-1.3194-0.84678 3.0524z" fill="#cc465f"/><path d="m123.2 140.06 0.68924 0.23631 0.0985 1.024-0.37416 0.98463-1.0746 0.13803z" fill="#e16276"/><path d="m122.21 143.52 0.8328 0.43641-0.17623 1.2272-0.51201 0.53171-0.86647-0.17724z" fill="#a73f51"/><path d="m122.13 141.38 0.11816-5.6518-2.1071 1.1816z" fill="#77bdb9"/><path d="m122.13 141.38 1.0634-1.3194 0.21662-1.024-1.1619-3.3084z" fill="#e44e6a"/><path d="m123.41 139.04 0.96173-0.51283-0.37872-1.3316-0.52393-1.0307-1.0636 0.0149z" fill="#dc6d7e"/><path d="m122.25 135.73-1.3588-1.9299-0.74832 3.1114z" fill="#75bab5"/><path d="m122.25 135.73 0.35447-0.49232-0.19693-0.90586-0.66955-0.63016-0.84678 0.0985z" fill="#e36477"/><path d="m120.89 133.8-2.0677-1.6936 1.6936-1.024z" fill="#4eb6b3"/><path d="m120.15 136.91-1.3194-4.805 2.0677 1.6936z" fill="#60c0bf"/><path d="m118.83 132.1 1.3588-3.013 0.33477 1.989z" fill="#77c7ca"/><path d="m120.52 131.08 1.28-1.6148-1.6148-0.37416z" fill="#7ac5c0"/><path d="m120.18 129.09 2.4222-1.6345-0.8074 2.0086z" fill="#92cecf"/><path d="m122.61 127.46 0.64985 1.3588-1.4572 0.64985z" fill="#96d2ce"/><path d="m122.61 127.46 2.5797 0.15754-1.9299 1.2012z" fill="#a5d9d5"/><path d="m125.19 127.61 0.59078 1.536-2.5206-0.33477z" fill="#99d1ce"/><path d="m125.19 127.61 2.245 1.4966-1.6542 0.0394z" fill="#bee4e4"/><path d="m127.43 129.11-0.94524 1.8511-0.70894-1.8117z" fill="#a0d8d5"/><path d="m126.49 130.96-0.72863-0.13785-0.47262-0.86647 0.49231-0.80738z" fill="#e0747f"/><path d="m126.49 130.96 1.2209 0.92555-0.2757-2.7766z" fill="#a9dddb"/><path d="m126.49 130.96-0.17724 1.1028 1.3982-0.17724z" fill="#96d5d0"/><path d="m123.26 128.81 0.41355 0.70893 0.84678 0.11816 0.50819-0.59221z" fill="#de6f7f"/><path d="m122.53 129.14 0.21662 0.73848-0.88616 0.5317-0.69909-0.13785 0.64001-0.8074z" fill="#e06b7d"/><path d="m120.52 131.08 0.86647 0.256 0.0788 1.1225-0.68624 0.50274z" fill="#da5366"/><path d="m126.31 132.06-0.33477 1.7526 1.733-1.9299z" fill="#8ad1cb"/><path d="m126.31 132.06-0.86647 0.76801-1.5557 0.68924 2.0874 0.29539z" fill="#79c5c2"/><path d="m125.44 132.83-1.3194-0.19693-0.70893-1.0831-0.21662 1.2406 0.68924 0.72863z" fill="#7fc6c0"/><path d="m125.44 132.83-0.0788-0.70894 0.43324-0.49231 0.60062-0.11816-0.0886 0.5514z" fill="#dd6f7f"/></g><g stroke="#000" stroke-width=".05"><path d="m97.68 145.38-4.0478-0.77614 2.1305 2.528z" fill="#203d67"/><path d="m93.632 144.61-3.4856 0.90586 5.6161 1.6221z" fill="#224171"/><path d="m95.762 147.14-3.4491 1.7075-2.167-3.3296z" fill="#212353"/><path d="m92.313 148.84-3.8605-3.3099 1.6936-0.0197z" fill="#461f60"/><path d="m91.282 147.96-0.68315 0.646-0.68925-0.25601-0.57108-0.43323-0.31508-0.74832 0.5932-0.63627z" fill="#462167"/><path d="m90.146 145.51 1.536-2.8751 1.9496 1.9693z" fill="#2c5690"/><path d="m90.146 145.51-2.3434-4.1354 2.7313 0.29539-0.38788 3.84z" fill="#2c5994"/><path d="m90.146 145.51-1.6936 0.0197-0.86647-2.4222 0.21662-1.733z" fill="#512773"/><path d="m90.146 145.51 0.38788-3.84 1.1482 0.96494z" fill="#2c5692"/><path d="m87.803 141.38 2.4419-1.4572 0.28941 1.7526z" fill="#2a568c"/><path d="m87.803 141.38 1.989-4.4702 0.45293 3.013z" fill="#2b548a"/><path d="m87.803 141.38-1.0634-1.3194 0.84678 3.0524z" fill="#4a246a"/><path d="m86.739 140.06-0.68924 0.23631-0.0985 1.024 0.37416 0.98463 1.0746 0.13803z" fill="#4b266b"/><path d="m87.731 143.52-0.8328 0.43641 0.17623 1.2272 0.51201 0.53171 0.86647-0.17724z" fill="#4e3b63"/><path d="m87.803 141.38-0.11816-5.6518 2.1071 1.1816z" fill="#295087"/><path d="m87.803 141.38-1.0634-1.3194-0.21662-1.024 1.1619-3.3084z" fill="#5a3080"/><path d="m86.523 139.04-0.96173-0.51283 0.37872-1.3316 0.52393-1.0307 1.0636 0.0149z" fill="#5b3283"/><path d="m87.685 135.73 1.3588-1.9299 0.74832 3.1114z" fill="#295385"/><path d="m87.685 135.73-0.35447-0.49232 0.19693-0.90586 0.66955-0.63016 0.84678 0.0985z" fill="#4c2b7a"/><path d="m89.043 133.8 2.0677-1.6936-1.6936-1.024z" fill="#2e6398"/><path d="m89.792 136.91 1.3194-4.805-2.0677 1.6936z" fill="#3468a0"/><path d="m91.111 132.1-1.3588-3.013-0.33477 1.989z" fill="#407ab1"/><path d="m89.418 131.08-1.28-1.6148 1.6148-0.37416z" fill="#306599"/><path d="m89.752 129.09-2.4222-1.6345 0.8074 2.0086z" fill="#437dad"/><path d="m87.33 127.46-0.64985 1.3588 1.4572 0.64985z" fill="#32669f"/><path d="m87.33 127.46-2.5797 0.15754 1.9299 1.2012z" fill="#2e6399"/><path d="m84.75 127.61-0.59078 1.536 2.5206-0.33477z" fill="#2e5b90"/><path d="m84.75 127.61-2.245 1.4966 1.6542 0.0394z" fill="#3b70a0"/><path d="m82.505 129.11 0.94524 1.8511 0.70894-1.8117z" fill="#316096"/><path d="m83.451 130.96 0.72863-0.13785 0.47262-0.86647-0.49231-0.80738z" fill="#2e5284"/><path d="m83.451 130.96-1.2209 0.92555 0.2757-2.7766z" fill="#2b5588"/><path d="m83.451 130.96 0.17724 1.1028-1.3982-0.17724z" fill="#2d5a8b"/><path d="m86.68 128.81-0.41355 0.70893-0.84678 0.11816-0.50819-0.59221z" fill="#2f4b7b"/><path d="m87.409 129.14-0.21662 0.73848 0.88616 0.5317 0.69909-0.13785-0.64001-0.8074z" fill="#325084"/><path d="m89.418 131.08-0.86647 0.256-0.0788 1.1225 0.68624 0.50274z" fill="#2c3e77"/><path d="m83.628 132.06 0.33477 1.7526-1.733-1.9299z" fill="#264677"/><path d="m83.628 132.06 0.86647 0.76801 1.5557 0.68924-2.0874 0.29539z" fill="#284c7d"/><path d="m84.494 132.83 1.3194-0.19693 0.70893-1.0831 0.21662 1.2406-0.68924 0.72863z" fill="#346797"/><path d="m84.494 132.83 0.0788-0.70894-0.43324-0.49231-0.60062-0.11816 0.0886 0.5514z" fill="#2c4e7f"/></g><g stroke="#0d1b2a" stroke-width=".05"><g><path d="m110.5 123.94 0.70758-4.1668-6.2072-1.5724z" fill="#d0efed"/><path d="m111.21 119.78 4.0882 4.7172-4.7958-0.55034z" fill="#d7f2f3"/><path d="m110.5 123.94 5.3461 2.28-0.55033-1.7296z" fill="#b5e8e0"/><path d="m110.5 123.94 2.8696 9.3557 2.4765-7.0757z" fill="#a4d7d8"/><path d="m116.51 131.92-3.1448 1.3758 2.4765-7.0757z" fill="#90d3cc"/><path d="m110.5 123.94-1.7689 11.478 4.6385-2.1227z" fill="#70cecf"/><path d="m105 130.86 5.4996-6.9185-1.7689 11.478z" fill="#3087ae"/><path d="m108.73 135.42-3.7307 2.162 3.3769 3.302z" fill="#20598d"/><path d="m105 140.89h3.3769l-3.3769-3.302z" fill="#1f5082"/><path d="m105 140.89v1.5331l3.3769 3.7737v-2.3586z" fill="#245d8b"/><path d="m105 140.89h3.3769v2.9482z" fill="#184270"/><path d="m105 142.42v3.7737h3.3769z" fill="#2f8a9f"/><path d="m105 146.19h3.3769l-0.94343 4.5992z" fill="#3cb1b3"/><path d="m105 146.19 2.4334 4.5992-2.4334-1.2186z" fill="#225688"/><path d="m113.37 133.3 1.0221 2.9482 2.1227-4.3241z" fill="#70cfc2"/><path d="m113.37 133.3-1.1007 3.4986 2.1227-0.55034z" fill="#4dc3bc"/><path d="m113.37 133.3-4.6385 2.1227 3.5379 1.3758z" fill="#308b92"/><path d="m105 149.57 2.4334 1.2186 0.31635 5.1889-2.7498-3.6165z" fill="#4d2370"/><path d="m107.43 150.79 5.071 9.4343-4.7546-4.2454z" fill="#873971"/><path d="m107.43 150.79 6.2502 4.7172-1.1793 4.7172z" fill="#ed4d60"/><path d="m107.43 150.79 4.4027 0.62895 1.8476 4.0882z" fill="#87d0d1"/><path d="m107.43 150.79 0.94343-4.5992 3.4592 5.2282z" fill="#6dcec7"/><path d="m108.38 146.19 2.9482 0.94343 0.51102 4.2848z" fill="#78d2d1"/><path d="m108.38 146.19 3.0662-1.5527-0.11793 2.4962z" fill="#51c3c5"/><path d="m108.38 146.19v-2.3586l3.0662 0.80585z" fill="#2f9798"/><path d="m113.68 155.51 2.162 3.5379-3.3413 1.1793z" fill="#f14366"/><path d="m115.85 159.05 3.1055 4.6385-6.4468-3.4592z" fill="#f64a6b"/><path d="m115.85 159.05 4.5992 3.4199-1.4938 1.2186z" fill="#f15484"/></g><path d="m120.44 162.47" fill="#0d1b2a" fill-opacity=".67257"/><g><path d="m120.44 162.47 4.0489 2.8303-5.5427-1.6117z" fill="#ec3d80"/><path d="m111.44 144.64 2.732 2.4962h-2.85z" fill="#97cdd2"/><path d="m111.33 147.14 4.9137 3.931-2.0638-3.931z" fill="#6fcfc3"/><path d="m114.18 147.14 3.9703 1.9655-1.9065 1.9655z" fill="#6cb9c0"/><path d="m111.33 147.14 4.9137 3.931-4.4027 0.35379z" fill="#2b7f83"/><path d="m118.15 149.1-1.9065 1.9655 6.3289 0.35379z" fill="#77b7bb"/><path d="m118.15 149.1 3.5772 0.1769 0.84516 2.1424z" fill="#7cd2d1"/><path d="m121.72 149.28 3.1644-1.0417-2.3193 3.1841z" fill="#7ed1d0"/><path d="m124.89 148.24 2.9875 1.0417-5.3068 2.1424z" fill="#76ddd8"/><path d="m122.57 151.42 1.2579 1.3562 4.0489-3.4986z" fill="#eb4966"/><path d="m122.57 151.42-4.0882 2.0834 5.3461-0.72724z" fill="#aa3d4c"/><path d="m116.24 151.07 2.2407 2.4372 4.0882-2.0834z" fill="#337876"/><path d="m111.84 151.42 4.4027-0.35379 2.2407 2.4372z" fill="#206163"/><path d="m128.27 142.93-0.39309 6.3485-2.9875-1.0417z" fill="#79ded9"/><path d="m128.27 142.93 1.7689 0.23586-2.162 6.1127z" fill="#98e7e4"/><path d="m128.27 142.93v-4.2061l1.7689 4.442z" fill="#afeceb"/><path d="m128.27 142.93v-4.2061l-1.6903 0.51102z" fill="#8fdfdf"/><path d="m120.44 162.47 3.1055 0.94343 0.94343 1.8869z" fill="#f14d7a"/><path d="m123.55 163.41 3.0268-0.94343-2.0834 2.8303z" fill="#f44b73"/><path d="m126.58 162.47 2.5748 0.47172-4.6582 2.3586z" fill="#f4476e"/><path d="m129.15 162.94-0.41275-3.8917-2.162 3.4199z" fill="#f5496d"/><path d="m129.15 162.94 0.88447-1.5724-1.2972-2.3193z" fill="#f4486a"/><path d="m130.04 161.37v-3.0858l-2.162-1.4741 0.86481 2.2407z" fill="#80e2db"/><path d="m128.27 138.72-4.9628-1.14 3.2725 1.651z" fill="#92d3d5"/><path d="m128.27 138.72-3.5772-1.9262-1.3857 0.78619z" fill="#cef0f0"/><path d="m111.84 151.42 1.8476 4.0882 1.081 1.7689 0.3931-4.8154z" fill="#281633"/><path d="m105 118.2 0.0552 5.7392h5.4444z" fill="#7ec2d6"/><path d="m105.06 123.94-0.0552 6.9185 5.4996-6.9185z" fill="#3e97c8"/></g><path d="m105 130.86-0.0627 4.5599" fill="#0d1b2a" fill-opacity=".67257"/><path d="m108.73 135.42-3.7307-4.5599" fill="#0d1b2a" fill-opacity=".67257"/><g><path d="m105 130.86-0.0627 4.5599h3.7934z" fill="#2a6da7"/><path d="m104.94 135.42 0.0627 2.162 3.7307-2.162z" fill="#26629a"/><path d="m112.5 160.23 5.6409 4.6385 0.80585-1.1793z" fill="#bd3874"/><path d="m118.95 163.69-0.80585 1.1793 3.3217 1.2579z" fill="#d23f81"/><path d="m118.95 163.69 5.5427 1.6117-3.0268 0.8255z" fill="#d1397d"/><path d="m121.47 166.12h3.7541l-0.72723-0.8255z" fill="#d43c7c"/><path d="m125.22 166.12 3.931-3.1841-4.6582 2.3586z" fill="#e14d82"/><path d="m127.87 156.81 0.39309-1.2972 1.7689 2.7713z" fill="#a8ece9"/><path d="m127.87 156.81-1.2972-1.2972h1.6903z" fill="#a9eae8"/><path d="m128.27 155.51-1.4446-0.90412-0.24569 0.90412z" fill="#a1ebe7"/><path d="m126.82 154.61-2.3291-0.25552 2.0834 1.1596z" fill="#a7e9e7"/><path d="m126.58 155.51h-2.0834v-1.1596z" fill="#80dfd8"/><path d="m124.49 154.35-2.2406 1.1596 1.0515 1.022z" fill="#7ad8d0"/><path d="m124.49 155.51-1.1891 1.022 1.1891-2.1817z" fill="#7eded7"/><path d="m122.25 155.51-0.53069 1.022h1.5822z" fill="#ee505d"/><path d="m121.72 156.53 0.84516 0.98274 0.73706-0.98274z" fill="#7cd8d1"/><path d="m124.22 160.23-1.1793-0.55034-0.52577-0.98274 0.0541-1.1793-0.84516-0.98274-0.25551 1.7493 0.51103 1.4348 1.3267 0.94343z" fill="#db3b5d"/><path d="m124.69 136.8-2.7517-0.29483 1.366 1.081z" fill="#c8e6e8"/><path d="m123.3 137.58-1.5822 0.8255-1.366-0.8255z" fill="#97dcd7"/><path d="m121.94 136.5-1.5822 1.081h2.9482z" fill="#bae8e5"/><path d="m120.36 137.58-1.4053 1.14 2.7713-0.31449z" fill="#8ad8d7"/><path d="m118.95 138.72 0.45206 2.221 2.3193-2.5355z" fill="#7bd0d3"/><path d="m118.95 138.72-0.47171 2.221h0.92377z" fill="#69c9cd"/><path d="m118.48 140.94 0.92377 2.8893v-2.8893z" fill="#3cafb6"/><path d="m119.4 140.94 1.2776 2.5944-1.2776 0.29483z" fill="#83d5ca"/><path d="m119.4 143.83 1.7493 0.80585 1.1007 0.37344 1.5724-1.1793-1.5724 0.23586-1.5724-0.53069z" fill="#6acdc1"/><path d="m112.27 136.8-0.8255 0.96309 1.9262 0.23585z" fill="#6dcec8"/><path d="m112.27 136.8 2.1227-0.55034-1.0221 1.7493z" fill="#67ccc6"/><path d="m108.73 135.42 2.7124 2.3389 0.8255-0.96309z" fill="#42bdc0"/><path d="m108.73 135.42 1.7689 3.302 0.94344-0.96309z" fill="#308991"/><path d="m111.44 137.76-0.94344 0.96309 0.94344 0.95325z" fill="#8ccbce"/><path d="m113.37 138-1.9262 1.6805v-1.9163z" fill="#95d1d3"/><path d="m108.73 135.42-0.35379 5.464 2.1227-2.162z" fill="#2f9495"/><path d="m108.38 140.89 1.71 1.5331-1.71 1.4152z" fill="#143350"/><path d="m110.09 142.42-0.45206-1.592-1.2579 0.059z" fill="#246d75"/><path d="m109.63 140.83 0.86481-2.1031-2.1227 2.162z" fill="#185662"/><path d="m111.44 139.68-0.47172 1.9458h2.3979z" fill="#1e616c"/><path d="m111.44 139.68 1.9262-1.6805v3.6263z" fill="#65cbc8"/><path d="m113.37 141.62 0.80585-0.67809-0.80585-2.9482z" fill="#99ddd3"/><path d="m113.37 141.62-1.9262 3.017-1.3562-2.221z" fill="#379fa5"/><path d="m113.37 141.62h-2.3979l-0.88447 0.79603z" fill="#34969c"/><path d="m110.09 142.42-1.71 1.4152 3.0662 0.80585z" fill="#1b4d5f"/><path d="m112.75 162.94-1.7361-4.0432-2.244 4.3184z" fill="#2c1442"/><path d="m112.75 162.94 1.425-1.3365-3.1611-2.7067z" fill="#221033"/><path d="m108.77 163.21 0.46188 4.7565 3.5182-5.0316z" fill="#4a1f68"/><path d="m108.77 163.21-2.3951 4.7565h2.857z" fill="#64237d"/><path d="m106.37 167.97v1.6117l2.857-1.6117z" fill="#5a206f"/><path d="m106.37 169.58 3.2599 2.6338-0.40293-4.2454z" fill="#94307f"/><path d="m106.37 169.58 1.0586 3.1055 2.2013-0.47171z" fill="#e1498f"/><path d="m107.43 172.69 2.2013 2.5551v-3.0268z" fill="#ea65a5"/><path d="m109.63 175.24 2.5551 1.0614-2.5551-4.0882z" fill="#e56ca6"/><path d="m109.63 172.22 2.2013 2.0441 0.35379 2.0441z" fill="#db5697"/><path d="m111.84 174.26 3.3217 0.47172-2.9679 1.5724z" fill="#de4f95"/><path d="m112.19 176.3h2.9679v-1.5724z" fill="#e47bb0"/><path d="m115.16 174.73 2.0245-2.0441-2.0245 3.6165z" fill="#e0559b"/><path d="m115.16 176.3 2.9875-2.3586-0.96308-1.2579z" fill="#e67fb2"/><path d="m117.18 172.69v-2.5944l0.96308 3.8524z" fill="#e067a4"/><path d="m118.15 173.95 0.33414-3.5772-1.2972-0.27517z" fill="#e275ab"/><path d="m118.48 170.37-1.2972-2.2013v1.9262z" fill="#e994bc"/><path d="m117.18 168.17-1.7689 0.6093 1.7689 1.3169z" fill="#e15c9e"/><path d="m117.18 168.17-1.3365-0.7862-1.3365 0.11793-1.3758 0.66827-0.94343 1.1007v1.5331l0.31448 0.33413 0.55033-1.5527 0.61913-0.45207 1.7395-0.35378z" fill="#d04c8f"/><path d="m118.48 153.5-0.17418 0.94444-1.1605-0.0211-1.0761-0.52749 0.30866-1.0551z" fill="#b44b60"/><path d="m120.12 153.28-0.0173 0.97717 0.56969 0.2532 0.88618-0.1477 0.67518-0.3587-0.062-1.0031z" fill="#b33f55"/><path d="m123.83 152.78 0.42978 0.68 0.86508-0.3165 0.52749-0.48529v-0.59079l-0.49884-0.43104z" fill="#d24464"/><path d="m126.34 150.61 0.87061 0.72046 0.90728-0.67519 0.37979-0.61188-0.62189-0.76043z" fill="#d94c6a"/><path d="m124.89 148.24-0.27289-0.98301 1.0339-1.0128 0.30839 0.31711z" fill="#7ad2cd"/><path d="m126.58 145.58-0.16973-0.67165 0.48529-1.1394 0.85894-0.0327z" fill="#df4a58"/><path d="m128.96 146.22 0.95456 0.33533-0.0211 0.73848-0.42199 0.90728-0.3587 0.2743-0.84109-0.3093z" fill="#e8566a"/><path d="m130.04 143.17 0.59092 0.12122 0.0633 1.6247-0.65409 0.211-0.64038-0.14672z" fill="#ef5e6e"/><path d="m127.18 140.55-0.54067 0.24418-0.31649 0.59079 0.44309 1.0972 1.3127 0.0323z" fill="#da4a57"/><path d="m128.73 139.89 0.71294-0.31883 0.75959 1.688-0.79126 0.34162z" fill="#89dfdb"/><path d="m124.4 138.13-0.0553 1.1442 1.1394 0.67518 1.0981-0.71846z" fill="#7bd3ce"/><path d="m122.51 138 0.51798 0.85954-0.4642 0.2954-0.92838 0.18989-0.36775-0.43878 0.45124-0.4933z" fill="#85b9be"/><path d="m120.22 140.05 0.53204 0.26096-0.35869 0.88619-0.80379 0.12662-0.18712-0.37999z" fill="#4bc3c1"/><path d="m120.26 142.69 0.49128-0.1393 0.69629 0.54859-0.76832 0.44211z" fill="#65ccbf"/><path d="m115.69 162.84-0.73472 0.76413 0.40089 0.65409 1.0761 0.69628 0.76585-0.87439z" fill="#ac3071"/><path d="m109.12 157.21-0.84133 0.7853 0.40089 0.90729 1.2871 0.56968 1.043-0.575z" fill="#6a2c7a"/><path d="m106.37 154.17-0.79264 0.84586 1.2238 1.688h0.52749l0.41627-0.72558z" fill="#592573"/><path d="m118.15 164.86-0.26203 1.1887 1.3926 0.78068 0.75959-0.0211 0.19943-1.157z" fill="#c23a7b"/><path d="m121.47 166.12-0.039 1.0069 1.0972 0.33759 1.055-0.23209 0.2532-1.1124z" fill="#c83577"/><path d="m125.22 166.12 0.15257 0.77477h0.65408l0.97059-0.50639-0.33084-1.44z" fill="#d54077"/><path d="m127.83 164.01 0.38885 0.82287 0.42199 0.0633 1.1183-1.1183-0.61031-0.83612z" fill="#e25289"/><path d="m124.57 163.09-0.0327 0.0102-0.21832-0.48856 1.8146-0.59079 0.44403 0.44343z" fill="#ea5576"/><path d="m127.14 161.58-0.32662-0.29961 0.71738-1.2449 0.38139 0.32308z" fill="#e7617f"/><path d="m130.04 159.82 0.78082 0.34339 0.0211 1.1394-0.33759 0.59079-0.6747-0.15666 0.21037-0.37399z" fill="#eb5178"/><path d="m128.31 157.93-0.59119 0.44662 0.0422 0.99168 0.5903 0.30066 0.3911-0.61863z" fill="#e24062"/><path d="m129.15 156.89 1.0323-0.29386 0.67519 1.6458-0.82302 0.59079v-0.55703z" fill="#f15b6a"/><path d="m127.23 156.16-0.62845 0.67529 0.84399 0.56969 0.59765-0.16997-0.16457-0.4264z" fill="#e66078"/><path d="m124.49 155.51 0.078 0.75421 1.1394 0.0633 0.2954-0.81751z" fill="#e4576e"/><path d="m123.3 156.53 0.46535 0.47064-0.67519 0.59079-0.52717-0.0787z" fill="#ec6b7f"/><path d="m109.03 162.71-1.1058-0.26779-1.0128 1.7513 1.0172 0.68773z" fill="#622e77"/><path d="m107.29 166.16-0.92494-0.20912-0.44309 0.67519-0.1688 1.1816 0.62384 0.1655z" fill="#993c79"/><path d="m106.37 169.58-0.77154 0.12176-0.0211 1.0339 0.4009 0.78068 1.0584 0.0195z" fill="#b23673"/><path d="m107.43 172.69-0.85951 0.35003v0.71738l0.82288 0.92838 0.75959-0.14769 0.37771-0.57053z" fill="#b83c7b"/><path d="m109.59 171.73 0.63515 0.038 0.75958 0.80179-0.24829 0.6645-1.1007-1.022z" fill="#a53a75"/><path d="m109.29 174.84-0.55926 0.96452 1.5403 0.97058 0.64598-0.99883-1.2776-0.53068z" fill="#c95090"/><path d="m112.19 176.3-0.17229 0.93234 0.71739 0.1055 1.0972-0.1055-0.15833-0.93234z" fill="#c64b8d"/><path d="m115.16 176.3 0.53115 0.61585 1.2449-0.71738 0.1055-0.5697-0.38776-0.50806z" fill="#c66b9f"/><path d="m115.91 169.14-0.24011 0.53827 0.63298 0.59078 0.88142 0.2532v-0.43362z" fill="#aa3b77"/><path d="m117.18 171.39-0.58602-0.0618-0.48529 0.92838 0.58573 0.92095 0.48558-0.49029z" fill="#b53b7e"/><path d="m116.17 173.71-0.81867-0.54542-1.0339 0.44309-0.0993 0.99095 0.9396 0.13344z" fill="#a93275"/><path d="m113.5 174.5-0.38215-0.97293-1.055-0.1899-0.71875 0.46728 0.49505 0.45969z" fill="#a43a76"/><path d="m109.97 159.47-0.99168 1.266 0.1477 0.75958 0.50283 0.0631 1.3841-2.6637z" fill="#421c5e"/><path d="m99.438 123.94-0.70758-4.1668 6.2699-1.5724z" fill="#62a6d8"/><path d="m98.73 119.78-4.0882 4.7172 4.7958-0.55034z" fill="#3881cd"/><path d="m99.438 123.94-5.3461 2.28 0.55033-1.7296z" fill="#2d6db7"/><path d="m99.438 123.94-2.8696 9.3557-2.4765-7.0757z" fill="#265698"/><path d="m93.423 131.92 3.1448 1.3758-2.4765-7.0757z" fill="#234b8f"/><path d="m99.438 123.94 1.7689 11.478-4.6385-2.1227z" fill="#2865a4"/><path d="m105 130.86-5.5623-6.9185 1.7689 11.478z" fill="#2b7ab6"/><path d="m101.21 135.42 3.7934 2.162-3.4396 3.302z" fill="#266299"/><path d="m105 140.89h-3.4396l3.4396-3.302z" fill="#20558a"/><path d="m105 140.89v1.5331l-3.4396 3.7737v-2.3586z" fill="#1d4d84"/><path d="m105 140.89h-3.4396v2.9482z" fill="#1a4171"/><path d="m105 142.42v3.7737h-3.4396z" fill="#26659c"/><path d="m105 146.19h-3.4396l0.94343 4.5992z" fill="#26669b"/><path d="m105 146.19-2.4961 4.5992 2.4961-1.2186z" fill="#2a69aa"/><path d="m96.568 133.3-1.0221 2.9482-2.1227-4.3241z" fill="#1e3d78"/><path d="m96.568 133.3 1.1007 3.4986-2.1227-0.55034z" fill="#183260"/><path d="m96.568 133.3 4.6385 2.1227-3.5379 1.3758z" fill="#183664"/><path d="m105 149.57-2.4961 1.2186-0.31635 5.1889 2.8125-3.6165z" fill="#633486"/><path d="m102.5 150.79-5.071 9.4343 4.7546-4.2454z" fill="#874199"/><path d="m102.5 150.79-6.2502 4.7172 1.1793 4.7172z" fill="#224e8c"/><path d="m102.5 150.79-4.4027 0.62895-1.8476 4.0882z" fill="#244f90"/><path d="m102.5 150.79-0.94343-4.5992-3.4592 5.2282z" fill="#22558f"/><path d="m101.56 146.19-2.9482 0.94343-0.51102 4.2848z" fill="#1d447b"/><path d="m101.56 146.19-3.0662-1.5527 0.11793 2.4962z" fill="#1c3e71"/><path d="m101.56 146.19v-2.3586l-3.0662 0.80585z" fill="#193968"/><path d="m96.254 155.51-2.162 3.5379 3.3413 1.1793z" fill="#1f407d"/><path d="m94.092 159.05-3.1055 4.6385 6.4468-3.4592z" fill="#5a2881"/><path d="m94.092 159.05-4.5992 3.4199 1.4938 1.2186z" fill="#4f2478"/></g><path d="m89.492 162.47" fill="#0d1b2a" fill-opacity=".67257"/><g><path d="m89.492 162.47-4.0489 2.8303 5.5427-1.6117z" fill="#642a86"/><path d="m98.494 144.64-2.732 2.4962h2.85z" fill="#1b3c6d"/><path d="m98.612 147.14-4.9137 3.931 2.0638-3.931z" fill="#183c6e"/><path d="m95.762 147.14-3.9703 1.9655 1.9065 1.9655z" fill="#183a6a"/><path d="m98.612 147.14-4.9137 3.931 4.4027 0.35379z" fill="#14325c"/><path d="m91.792 149.1 1.9065 1.9655-6.3289 0.35379z" fill="#214e8b"/><path d="m91.792 149.1-3.5772 0.1769-0.84516 2.1424z" fill="#2965a5"/><path d="m88.215 149.28-3.1644-1.0417 2.3193 3.1841z" fill="#2863a3"/><path d="m85.05 148.24-2.9875 1.0417 5.3068 2.1424z" fill="#255694"/><path d="m87.37 151.42-1.2579 1.3562-4.0489-3.4986z" fill="#1a386b"/><path d="m87.37 151.42 4.0882 2.0834-5.3461-0.72724z" fill="#481e6f"/><path d="m93.698 151.07-2.2407 2.4372-4.0882-2.0834z" fill="#1a3668"/><path d="m98.101 151.42-4.4027-0.35379-2.2407 2.4372z" fill="#10294c"/><path d="m81.67 142.93 0.39309 6.3485 2.9875-1.0417z" fill="#2966a7"/><path d="m81.67 142.93-1.7689 0.23586 2.162 6.1127z" fill="#234f8f"/><path d="m81.67 142.93v-4.2061l-1.7689 4.442z" fill="#23538f"/><path d="m81.67 142.93v-4.2061l1.6903 0.51102z" fill="#4084bf"/><path d="m89.492 162.47-3.1055 0.94343-0.94343 1.8869z" fill="#59287b"/><path d="m86.387 163.41-3.0268-0.94343 2.0834 2.8303z" fill="#5a2878"/><path d="m83.36 162.47-2.5748 0.47172 4.6582 2.3586z" fill="#742c83"/><path d="m80.785 162.94 0.41275-3.8917 2.162 3.4199z" fill="#6f297d"/><path d="m80.785 162.94-0.88447-1.5724 1.2972-2.3193z" fill="#602a86"/><path d="m79.901 161.37v-3.0858l2.162-1.4741-0.86481 2.2407z" fill="#5a2b7f"/><path d="m81.67 138.72 4.9628-1.14-3.2725 1.651z" fill="#2f81bd"/><path d="m81.67 138.72 3.5772-1.9262 1.3857 0.78619z" fill="#3e84bb"/><path d="m98.101 151.42-1.8476 4.0882-1.081 1.7689-0.3931-4.8154z" fill="#20102f"/><path d="m105 118.2 0.0552 5.7392h-5.6175z" fill="#7fc0d5"/><path d="m105.06 123.94-0.0552 6.9185-5.5623-6.9185z" fill="#3e96c7"/></g><path d="m104.94 130.86 0.0627 4.5599" fill="#0d1b2a" fill-opacity=".67257"/><path d="m101.21 135.42 3.7307-4.5599" fill="#0d1b2a" fill-opacity=".67257"/><g><path d="m105 130.86-0.0627 4.5599h-3.7307z" fill="#286ca8"/><path d="m104.94 135.42 0.0627 2.162-3.7934-2.162z" fill="#27649c"/><path d="m97.433 160.23-5.6409 4.6385-0.80585-1.1793z" fill="#c24289"/><path d="m90.986 163.69 0.80585 1.1793-3.3217 1.2579z" fill="#ca4888"/><path d="m90.986 163.69-5.5427 1.6117 3.0268 0.8255z" fill="#ce4b8d"/><path d="m88.47 166.12h-3.7541l0.72723-0.8255z" fill="#d7619a"/><path d="m84.716 166.12-3.931-3.1841 4.6582 2.3586z" fill="#d8498d"/><path d="m82.063 156.81-0.39309-1.2972-1.7689 2.7713z" fill="#723891"/><path d="m82.063 156.81 1.2972-1.2972h-1.6903z" fill="#7a429a"/><path d="m81.67 155.51 1.4446-0.90412 0.24569 0.90412z" fill="#793b99"/><path d="m83.114 154.61 2.3291-0.25552-2.0834 1.1596z" fill="#763a97"/><path d="m83.36 155.51h2.0834v-1.1596z" fill="#7a449f"/><path d="m85.443 154.35 2.2406 1.1596-1.0515 1.022z" fill="#854cb2"/><path d="m85.443 155.51 1.1891 1.022-1.1891-2.1817z" fill="#7c45a0"/><path d="m87.684 155.51 0.53069 1.022h-1.5822z" fill="#7946a5"/><path d="m88.215 156.53-0.84516 0.98274-0.73706-0.98274z" fill="#7d49aa"/><path d="m85.719 160.23 1.1793-0.55034 0.52577-0.98274-0.0541-1.1793 0.84516-0.98274 0.25551 1.7493-0.51103 1.4348-1.3267 0.94343z" fill="#5f2f86"/><path d="m85.247 136.8 2.7517-0.29483-1.366 1.081z" fill="#6ab6d0"/><path d="m86.633 137.58 1.5822 0.8255 1.366-0.8255z" fill="#3d7fb9"/><path d="m87.999 136.5 1.5822 1.081h-2.9482z" fill="#7fc2d8"/><path d="m89.581 137.58 1.4053 1.14-2.7713-0.31449z" fill="#5cacc9"/><path d="m90.986 138.72-0.45206 2.221-2.3193-2.5355z" fill="#3d88b9"/><path d="m90.986 138.72 0.47171 2.221h-0.92377z" fill="#67b2cc"/><path d="m91.458 140.94-0.92377 2.8893v-2.8893z" fill="#3f8bbe"/><path d="m90.534 140.94-1.2776 2.5944 1.2776 0.29483z" fill="#3378b3"/><path d="m90.534 143.83-1.7493 0.80585-1.1007 0.37344-1.5724-1.1793 1.5724 0.23586 1.5724-0.53069z" fill="#2d76b8"/><path d="m97.669 136.8 0.8255 0.96309-1.9262 0.23585z" fill="#1c3d70"/><path d="m97.669 136.8-2.1227-0.55034 1.0221 1.7493z" fill="#183363"/><path d="m101.21 135.42-2.7124 2.3389-0.8255-0.96309z" fill="#204c82"/><path d="m101.21 135.42-1.7689 3.302-0.94344-0.96309z" fill="#204d84"/><path d="m98.494 137.76 0.94344 0.96309-0.94344 0.95325z" fill="#275e9e"/><path d="m96.568 138 1.9262 1.6805v-1.9163z" fill="#275b9d"/><path d="m101.21 135.42 0.35379 5.464-2.1227-2.162z" fill="#204f87"/><path d="m101.56 140.89-1.71 1.5331 1.71 1.4152z" fill="#15325c"/><path d="m99.85 142.42 0.45206-1.592 1.2579 0.059z" fill="#1d4175"/><path d="m100.3 140.83-0.86481-2.1031 2.1227 2.162z" fill="#1e447a"/><path d="m98.494 139.68 0.47172 1.9458h-2.3979z" fill="#12294a"/><path d="m98.494 139.68-1.9262-1.6805v3.6263z" fill="#1b3b6e"/><path d="m96.568 141.62-0.80585-0.67809 0.80585-2.9482z" fill="#193969"/><path d="m96.568 141.62 1.9262 3.017 1.3562-2.221z" fill="#17335f"/><path d="m96.568 141.62h2.3979l0.88447 0.79603z" fill="#183460"/><path d="m99.85 142.42 1.71 1.4152-3.0662 0.80585z" fill="#142c52"/><path d="m97.187 162.94 1.7361-4.0432 2.244 4.3184z" fill="#2a143b"/><path d="m97.187 162.94-1.425-1.3365 3.1611-2.7067z" fill="#250f37"/><path d="m101.17 163.21-0.46188 4.7565-3.5182-5.0316z" fill="#4e1e58"/><path d="m101.17 163.21 2.3951 4.7565h-2.857z" fill="#ba3468"/><path d="m103.56 167.97v1.6117l-2.857-1.6117z" fill="#dc4981"/><path d="m103.56 169.58-3.2599 2.6338 0.40293-4.2454z" fill="#db4e80"/><path d="m103.56 169.58-1.0586 3.1055-2.2013-0.47171z" fill="#f55371"/><path d="m102.5 172.69-2.2013 2.5551v-3.0268z" fill="#f45171"/><path d="m100.3 175.24-2.5551 1.0614 2.5551-4.0882z" fill="#ef5276"/><path d="m100.3 172.22-2.2013 2.0441-0.35379 2.0441z" fill="#f26586"/><path d="m98.101 174.26-3.3217 0.47172 2.9679 1.5724z" fill="#f35375"/><path d="m97.747 176.3h-2.9679v-1.5724z" fill="#f37a88"/><path d="m94.78 174.73-2.0245-2.0441 2.0245 3.6165z" fill="#f55e72"/><path d="m94.78 176.3-2.9875-2.3586 0.96308-1.2579z" fill="#f35d74"/><path d="m92.755 172.69v-2.5944l-0.96308 3.8524z" fill="#f25371"/><path d="m91.792 173.95-0.33414-3.5772 1.2972-0.27517z" fill="#ed5477"/><path d="m91.458 170.37 1.2972-2.2013v1.9262z" fill="#da457d"/><path d="m92.755 168.17 1.7689 0.6093-1.7689 1.3169z" fill="#e3538b"/><path d="m92.755 168.17 1.3365-0.7862 1.3365 0.11793 1.3758 0.66827 0.94343 1.1007v1.5331l-0.31448 0.33413-0.55033-1.5527-0.61913-0.45207-1.7395-0.35378z" fill="#e64874"/><path d="m91.458 153.5 0.17418 0.94444 1.1605-0.0211 1.0761-0.52749-0.30866-1.0551z" fill="#491e6d"/><path d="m89.821 153.28 0.0173 0.97717-0.56969 0.2532-0.88618-0.1477-0.67518-0.3587 0.062-1.0031z" fill="#4e2072"/><path d="m86.112 152.78-0.42978 0.68-0.86508-0.3165-0.52749-0.48529v-0.59079l0.49884-0.43104z" fill="#5c2381"/><path d="m83.599 150.61-0.87061 0.72046-0.90728-0.67519-0.37979-0.61188 0.62189-0.76043z" fill="#55267c"/><path d="m85.05 148.24 0.27289-0.98301-1.0339-1.0128-0.30839 0.31711z" fill="#275f9c"/><path d="m83.36 145.58 0.16973-0.67165-0.48529-1.1394-0.85894-0.0327z" fill="#27619e"/><path d="m80.982 146.22-0.95456 0.33533 0.0211 0.73848 0.42199 0.90728 0.3587 0.2743 0.84109-0.3093z" fill="#592880"/><path d="m79.901 143.17-0.59092 0.12122-0.0633 1.6247 0.65409 0.211 0.64038-0.14672z" fill="#244c91"/><path d="m82.757 140.55 0.54067 0.24418 0.31649 0.59079-0.44309 1.0972-1.3127 0.0323z" fill="#2c6cb0"/><path d="m81.204 139.89-0.71294-0.31883-0.75959 1.688 0.79126 0.34162z" fill="#2860a1"/><path d="m85.542 138.13 0.0553 1.1442-1.1394 0.67518-1.0981-0.71846z" fill="#2866a4"/><path d="m87.424 138-0.51798 0.85954 0.4642 0.2954 0.92838 0.18989 0.36775-0.43878-0.45124-0.4933z" fill="#3281cb"/><path d="m89.716 140.05-0.53204 0.26096 0.35869 0.88619 0.80379 0.12662 0.18712-0.37999z" fill="#2d75b7"/><path d="m89.676 142.69-0.49128-0.1393-0.69629 0.54859 0.76832 0.44211z" fill="#307bc3"/><path d="m94.252 162.84 0.73472 0.76413-0.40089 0.65409-1.0761 0.69628-0.76585-0.87439z" fill="#a33876"/><path d="m100.81 157.21 0.84133 0.7853-0.40089 0.90729-1.2871 0.56968-1.043-0.575z" fill="#743080"/><path d="m103.56 154.17 0.79264 0.84586-1.2238 1.688h-0.52749l-0.41627-0.72558z" fill="#692d82"/><path d="m91.792 164.86 0.26203 1.1887-1.3926 0.78068-0.75959-0.0211-0.19943-1.157z" fill="#ce4a88"/><path d="m88.47 166.12 0.039 1.0069-1.0972 0.33759-1.055-0.23209-0.2532-1.1124z" fill="#cb4b89"/><path d="m84.716 166.12-0.15257 0.77477h-0.65408l-0.97059-0.50639 0.33084-1.44z" fill="#bf4784"/><path d="m82.104 164.01-0.38885 0.82287-0.42199 0.0633-1.1183-1.1183 0.61031-0.83612z" fill="#832d80"/><path d="m85.368 163.09 0.0327 0.0102 0.21832-0.48856-1.8146-0.59079-0.44403 0.44343z" fill="#8045a0"/><path d="m82.802 161.58 0.32662-0.29961-0.71738-1.2449-0.38139 0.32308z" fill="#5e257a"/><path d="m79.901 159.82-0.78082 0.34339-0.0211 1.1394 0.33759 0.59079 0.6747-0.15666-0.21037-0.37399z" fill="#6e3988"/><path d="m81.63 157.93 0.59119 0.44662-0.0422 0.99168-0.5903 0.30066-0.3911-0.61863z" fill="#6b3086"/><path d="m80.785 156.89-1.0323-0.29386-0.67519 1.6458 0.82302 0.59079v-0.55703z" fill="#6d318a"/><path d="m82.711 156.16 0.62845 0.67529-0.84399 0.56969-0.59765-0.16997 0.16457-0.4264z" fill="#713c8b"/><path d="m85.443 155.51-0.078 0.75421-1.1394 0.0633-0.2954-0.81751z" fill="#6b308c"/><path d="m86.633 156.53-0.46535 0.47064 0.67519 0.59079 0.52717-0.0787z" fill="#60337f"/><path d="m100.91 162.71 1.1058-0.26779 1.0128 1.7513-1.0172 0.68773z" fill="#802d6b"/><path d="m102.65 166.16 0.92494-0.20912 0.44309 0.67519 0.1688 1.1816-0.62384 0.1655z" fill="#c9417c"/><path d="m103.56 169.58 0.77154 0.12176 0.0211 1.0339-0.4009 0.78068-1.0584 0.0195z" fill="#d65b7c"/><path d="m102.5 172.69 0.85951 0.35003v0.71738l-0.82288 0.92838-0.75959-0.14769-0.37771-0.57053z" fill="#d84e7d"/><path d="m100.35 171.73-0.63515 0.038-0.75958 0.80179 0.24829 0.6645 1.1007-1.022z" fill="#db4f75"/><path d="m100.65 174.84 0.55926 0.96452-1.5403 0.97058-0.64598-0.99883 1.2776-0.53068z" fill="#ee5575"/><path d="m97.747 176.3 0.17229 0.93234-0.71739 0.1055-1.0972-0.1055 0.15833-0.93234z" fill="#eb536f"/><path d="m94.78 176.3-0.53115 0.61585-1.2449-0.71738-0.1055-0.5697 0.38776-0.50806z" fill="#eb5f79"/><path d="m94.029 169.14 0.24011 0.53827-0.63298 0.59078-0.88142 0.2532v-0.43362z" fill="#e96886"/><path d="m92.755 171.39 0.58602-0.0618 0.48529 0.92838-0.58573 0.92095-0.48558-0.49029z" fill="#ec6584"/><path d="m93.767 173.71 0.81867-0.54542 1.0339 0.44309 0.0993 0.99095-0.9396 0.13344z" fill="#dd436d"/><path d="m96.44 174.5 0.38215-0.97293 1.055-0.1899 0.71875 0.46728-0.49505 0.45969z" fill="#d64b70"/><path d="m99.966 159.47 0.99168 1.266-0.1477 0.75958-0.50283 0.0631-1.3841-2.6637z" fill="#3a1854"/></g></g></g></g></svg>
